<?xml version="1.0" ?><!DOCTYPE svg  PUBLIC '-//W3C//DTD SVG 1.1//EN'  'http://www.w3.org/Graphics/SVG/1.1/DTD/svg11.dtd'><svg enable-background="new 0 0 128 128" height="128px" id="Layer_1" version="1.1" viewBox="0 0 128 128" width="128px" xml:space="preserve" xmlns="http://www.w3.org/2000/svg" xmlns:xlink="http://www.w3.org/1999/xlink"><g><path d="M52,128H10c-5.514,0-10-4.486-10-10V76c0-5.514,4.486-10,10-10h42c5.514,0,10,4.486,10,10v42C62,123.514,57.515,128,52,128   z M10,74c-1.084,0-2,0.916-2,2v42c0,1.084,0.916,2,2,2h42c1.084,0,2-0.916,2-2V76c0-1.084-0.916-2-2-2H10z"/></g><g><path d="M118,128H76c-5.514,0-10-4.486-10-10V76c0-5.514,4.486-10,10-10h42c5.514,0,10,4.486,10,10v42   C128,123.514,123.514,128,118,128z M76,74c-1.084,0-2,0.916-2,2v42c0,1.084,0.916,2,2,2h42c1.084,0,2-0.916,2-2V76   c0-1.084-0.916-2-2-2H76z"/></g><g><path d="M85,62H43c-5.514,0-10-4.486-10-10V10c0-5.514,4.486-10,10-10h42c5.514,0,10,4.486,10,10v42C95,57.515,90.514,62,85,62z    M43,8c-1.084,0-2,0.916-2,2v42c0,1.084,0.916,2,2,2h42c1.084,0,2-0.916,2-2V10c0-1.084-0.916-2-2-2H43z"/></g><g enable-background="new    "><g><path d="M48.938,41.314l10.889-24.592C60.586,15.026,61.969,14,63.844,14h0.402c1.875,0,3.213,1.026,3.972,2.722l10.89,24.592    c0.225,0.49,0.357,0.937,0.357,1.382c0,1.831-1.429,3.303-3.258,3.303c-1.605,0-2.678-0.937-3.303-2.366l-2.098-4.909H57.06    l-2.187,5.132C54.293,45.197,53.132,46,51.705,46c-1.786,0-3.169-1.428-3.169-3.213C48.535,42.295,48.714,41.805,48.938,41.314z     M68.264,32.655l-4.33-10.309l-4.33,10.309H68.264z"/></g></g><g enable-background="new    "><g><path d="M82.55,97.091V97c0-9.07,6.839-16.5,16.638-16.5c4.787,0,8.022,1.275,10.666,3.236c0.73,0.547,1.369,1.549,1.369,2.779    c0,1.914-1.552,3.418-3.465,3.418c-0.957,0-1.597-0.363-2.098-0.684c-1.96-1.46-4.012-2.277-6.52-2.277    c-5.379,0-9.252,4.465-9.252,9.937V97c0,5.469,3.781,10.027,9.252,10.027c2.963,0,4.924-0.91,6.93-2.508    c0.548-0.455,1.277-0.774,2.097-0.774c1.776,0,3.283,1.459,3.283,3.237c0,1.093-0.548,1.959-1.187,2.506    c-2.873,2.508-6.244,4.012-11.351,4.012C89.523,113.5,82.55,106.252,82.55,97.091z"/></g></g><g enable-background="new    "><g><path d="M18.399,84.52c0-1.967,1.555-3.52,3.52-3.52h11.338c3.657,0,6.537,1.005,8.365,2.832c1.463,1.465,2.195,3.246,2.195,5.441    v0.091c0,3.612-1.92,5.622-4.206,6.903c3.703,1.418,5.989,3.564,5.989,7.862v0.093c0,5.852-4.754,8.775-11.978,8.775H21.919    c-1.965,0-3.52-1.555-3.52-3.52V84.52z M31.749,93.938c3.108,0,5.074-1.008,5.074-3.385v-0.091c0-2.103-1.645-3.29-4.617-3.29    h-6.949v6.766H31.749z M33.623,106.828c3.109,0,4.983-1.098,4.983-3.475v-0.093c0-2.146-1.6-3.475-5.211-3.475h-8.137v7.04    L33.623,106.828L33.623,106.828z"/></g></g></svg>